<?xml version="1.0" encoding="UTF-8"?>
<!DOCTYPE svg PUBLIC "-//W3C//DTD SVG 1.1//EN" "http://www.w3.org/Graphics/SVG/1.1/DTD/svg11.dtd">
<!-- Creator: CorelDRAW -->
<svg xmlns="http://www.w3.org/2000/svg" xml:space="preserve" width="30mm" height="30mm" version="1.1" style="shape-rendering:geometricPrecision; text-rendering:geometricPrecision; image-rendering:optimizeQuality; fill-rule:evenodd; clip-rule:evenodd"
viewBox="0 0 3000 3000"
 xmlns:xlink="http://www.w3.org/1999/xlink"
 xmlns:xodm="http://www.corel.com/coreldraw/odm/2003">
 <defs>
  <style type="text/css">
   <![CDATA[
    .fil0 {fill:#A9ABAE}
    .fil1 {fill:#373435}
   ]]>
  </style>
 </defs>
 <g id="Camada_x0020_1">
  <metadata id="CorelCorpID_0Corel-Layer"/>
  <path class="fil0" d="M2435.07 885.32c6.61,130.2 32.59,260.79 89.82,378.62 106.02,188.01 162.09,390.19 160.07,606.51l-0.01 0.95 -0.05 0.96c-11.64,219.56 -98.36,404.08 -266.02,547.45 -130.26,111.41 -275.13,203.74 -431.63,273.71 -81.33,36.37 -164.9,68.99 -250.84,92.77 -77.34,24.06 -157.85,62.46 -209.31,127.05l-34.17 42.9 -34.17 -42.9c-51.46,-64.59 -131.97,-102.99 -209.31,-127.05 -85.94,-23.78 -169.51,-56.4 -250.84,-92.77 -156.5,-69.97 -301.37,-162.3 -431.63,-273.71 -167.66,-143.37 -254.38,-327.89 -266.02,-547.45l-0.05 -0.96 -0.01 -0.95c-2.02,-216.22 53.68,-418.79 160.1,-606.55 57.21,-117.83 83.18,-248.39 89.79,-378.58 3.73,-154.39 -77.77,-275.01 -194.35,-368.98l-34.76 -28.01 28.76 -34.15c91.78,-108.98 183.57,-217.95 275.35,-326.93l22.95 -27.25 31.32 17c270.59,146.88 533.81,122.26 789.06,-43.62l23.81 -15.47 23.81 15.47c255.25,165.88 518.47,190.5 789.06,43.62l31.32 -17 22.95 27.25c91.78,108.98 183.57,217.95 275.35,326.93l28.76 34.15 -34.76 28.01c-116.58,93.97 -198.08,214.59 -194.35,368.98z"/>
  <path class="fil1" d="M2560.39 1251.32c110.48,193.62 167.14,403.48 164.99,626.65 -0.02,0.85 -0.04,1.7 -0.08,2.55 -12.12,230.18 -103.54,424.47 -279.27,574.76 -133.45,114.12 -281.9,208.71 -442.23,280.41 -83.24,37.21 -168.85,70.62 -256.53,94.86 -76.2,23.71 -158.92,63.04 -204.77,131.6 -11.3,16.91 -29.23,26.48 -49.57,26.48 -20.34,0 -38.26,-9.57 -49.56,-26.48 -45.85,-68.56 -128.57,-107.89 -204.76,-131.6 -87.68,-24.24 -173.3,-57.65 -256.54,-94.86 -160.34,-71.7 -308.78,-166.29 -442.24,-280.41 -175.73,-150.29 -267.15,-344.58 -279.26,-574.76 -0.05,-0.85 -0.07,-1.7 -0.08,-2.55 -2.16,-223.17 54.51,-433.03 164.99,-626.65 55.65,-113.75 79.99,-240.63 86.36,-366.15 3.65,-151.01 -81.03,-265.37 -196.32,-354.22 -13.23,-10.19 -21.11,-24.27 -22.9,-40.86 -1.77,-16.53 2.97,-32.07 13.68,-44.79 99.43,-118.05 198.86,-236.09 298.29,-354.15 18.53,-21.99 49.73,-27.66 74.8,-13.58 268.57,150.8 527.14,126.31 780.57,-41.96 20.29,-13.47 45.66,-13.47 65.95,0 253.43,168.27 511.99,192.76 780.57,41.96 25.08,-14.08 56.27,-8.41 74.8,13.58 99.42,118.05 198.85,236.1 298.29,354.15 10.71,12.72 15.44,28.26 13.67,44.79 -1.79,16.59 -9.67,30.67 -22.89,40.86 -115.29,88.86 -199.97,203.21 -196.32,354.22 6.37,125.52 30.7,252.4 86.36,366.15zm-836.44 636.86c6.6,-8 13.88,-15.51 22.36,-21.45 1.36,-0.95 2.74,-1.86 4.16,-2.72 0.81,-0.48 1.62,-0.96 2.44,-1.42 1.05,-0.58 2.2,-0.77 3.29,-0.56 -0.2,-0.12 -0.38,-0.25 -0.57,-0.4 -1.54,-1.22 -2.19,-3.1 -1.73,-5.02 2.92,-12.14 6.89,-23.96 12.06,-35.33 0.81,-1.8 2.49,-2.89 4.46,-2.9 1.97,-0.01 3.66,1.05 4.5,2.83 2.51,5.33 4.12,11.31 5.28,17.14 4.51,-6.7 9.33,-13.2 14.62,-19.3 5.33,-6.17 11.16,-11.94 17.56,-16.99 1.46,-1.15 2.94,-2.26 4.45,-3.32 0.95,-0.67 1.92,-1.32 2.89,-1.97 1.57,-1.04 3.47,-1.11 5.1,-0.21l0.09 -0.73c-0.93,-0.28 -1.74,-0.84 -2.39,-1.65 -1.05,-1.31 -1.36,-2.91 -0.88,-4.52 1.9,-6.25 4.05,-12.43 6.56,-18.45 0.84,-2.01 2.77,-3.19 4.94,-3.03 2.16,0.17 3.9,1.64 4.41,3.74 0.47,1.89 0.99,3.84 1.68,5.7 1.06,-3.76 2.28,-7.48 3.66,-11.14 1.33,-3.54 2.81,-7.03 4.47,-10.43 0.04,-0.09 0.08,-0.18 0.13,-0.27 1.87,-3.84 3.95,-7.59 6.26,-11.18 2.76,-4.29 5.85,-8.38 9.32,-12.13 0.39,-0.42 0.84,-0.77 1.32,-1.02 -0.41,-0.16 -0.8,-0.38 -1.17,-0.66 -1.92,-1.44 -2.53,-3.97 -1.48,-6.12 3.42,-6.97 7.2,-13.74 10.97,-20.52 6.26,-11.24 12.55,-22.51 17.23,-34.52 0.79,-2.02 2.71,-3.26 4.89,-3.13 2.17,0.12 3.93,1.57 4.49,3.67 1.25,4.74 2.26,9.56 3.05,14.4 2.67,-6.4 5.74,-12.52 8.94,-18.74 4.73,-9.19 9.01,-17.87 12.06,-27.8 0.64,-2.07 2.46,-3.44 4.63,-3.49 1.99,-0.04 3.72,1.05 4.55,2.81 1.65,-5.96 3.86,-11.77 6.46,-17.38 6.28,-13.53 14.98,-25.98 24.88,-37.1 1.61,-1.81 3.25,-3.59 4.93,-5.34 1.53,-1.59 3.08,-3.16 4.66,-4.7 1.56,-1.53 3.85,-1.85 5.78,-0.81 0.12,0.06 0.25,0.14 0.36,0.21 0.4,-1.74 0.84,-3.48 1.33,-5.21 -0.7,-0.59 -1.21,-1.36 -1.5,-2.3 -0.43,-1.4 -0.26,-2.78 0.5,-4.04 2.25,-3.67 4.68,-7.21 7.16,-10.73 0.62,-0.88 1.25,-1.76 1.87,-2.63 0.19,-0.27 0.38,-0.54 0.57,-0.82 0.88,-1.23 1.75,-2.45 2.61,-3.69 1.42,-2.03 2.81,-4.07 4.14,-6.14 -0.23,-0.04 -0.47,-0.1 -0.7,-0.18 -2.23,-0.78 -3.58,-2.95 -3.28,-5.29 2.5,-19.56 8.82,-33.03 21.89,-47.54 0.81,-0.9 1.63,-1.8 2.46,-2.69 1.06,-1.13 2.13,-2.25 3.19,-3.38 0.09,-0.1 0.17,-0.18 0.26,-0.27 1.68,-1.78 10.88,-10.35 8.98,-11.4 -2.18,-1.19 -3.14,-3.75 -2.27,-6.07 1.84,-4.91 3.58,-9.86 5.23,-14.84 0.36,-1.1 0.72,-2.2 1.07,-3.31 0.1,-0.32 0.21,-0.64 0.31,-0.96 0.42,-1.34 0.83,-2.67 1.24,-4.01 0.63,-2.09 1.25,-4.18 1.85,-6.28 -0.26,0.02 -0.52,0.03 -0.78,0.01 -2.36,-0.12 -4.25,-1.83 -4.62,-4.16 -1.98,-12.51 -0.02,-24.51 4.6,-36.25 2.67,-6.76 6.11,-13.23 9.93,-19.4 0.91,-1.47 1.84,-2.92 2.79,-4.36 0.98,-1.48 1.98,-2.94 2.99,-4.39 0.87,-1.24 1.75,-2.48 2.64,-3.7 -0.13,-0.04 -0.27,-0.08 -0.4,-0.13 -2.07,-0.76 -3.35,-2.72 -3.23,-4.92 0.82,-14.13 4.6,-28.48 9.44,-41.74 0.45,-1.24 0.91,-2.48 1.38,-3.71 0.49,-1.27 1,-2.53 1.51,-3.79 0.14,-0.34 0.28,-0.67 0.41,-1.01 -2,-0.06 -3.69,-1.23 -4.44,-3.09 -0.55,-1.38 -1.05,-2.77 -1.51,-4.17 -4.88,-14.82 -5.27,-31.93 -3.5,-47.31 0.79,-6.91 2.04,-13.76 3.67,-20.51 0.62,-2.54 1.29,-5.07 2.01,-7.59 0.59,-2.07 2.35,-3.47 4.5,-3.58 0.12,0 0.25,0 0.37,0 -0.08,-0.27 -0.16,-0.54 -0.25,-0.8 -0.17,-0.56 -0.23,-1.06 -0.21,-1.64 0.29,-7.01 1.05,-13.98 1.81,-20.95 0.76,-6.91 1.48,-13.82 1.95,-20.76 0.15,-2.27 1.76,-4.09 4,-4.52 2.24,-0.43 4.4,0.67 5.39,2.72 0.72,1.52 1.44,3.05 2.17,4.57 0.32,-6.9 0.35,-13.83 0.11,-20.73 -0.28,-8.12 -0.93,-16.24 -2.02,-24.3 -0.3,-2.22 0.88,-4.29 2.93,-5.19 2.06,-0.89 4.38,-0.32 5.79,1.41 0.81,0.99 1.6,1.99 2.37,3.01 0.56,-3.16 1.16,-6.31 1.81,-9.45 0.37,-1.81 0.76,-3.61 1.17,-5.42 -0.28,0.04 -0.57,0.06 -0.86,0.05 -2.36,-0.07 -4.3,-1.75 -4.71,-4.08 -1.13,-6.44 -1.65,-13.2 -1.84,-19.84 0.15,-11.68 0.53,-23.25 1.01,-34.81 0.32,-7.83 0.71,-15.66 1.12,-23.48 0.12,-2.33 1.79,-4.21 4.1,-4.61 2.3,-0.39 4.5,0.82 5.39,2.98 2.34,5.66 4.49,11.4 6.57,17.15 -0.17,-4.41 -0.26,-8.83 -0.25,-13.24 0,-0.15 0,-0.28 0.02,-0.43 1.08,-12.37 3.22,-24.5 6.75,-36.41 2.44,-8.28 5.5,-16.32 8.99,-24.2 0.8,-1.82 2.49,-2.92 4.48,-2.94 1.98,-0.02 3.69,1.07 4.52,2.87 10.4,22.54 16.59,46.63 17.98,71.35 0.4,-1.14 0.79,-2.28 1.17,-3.42 0.68,-2.02 2.48,-3.34 4.61,-3.37 2.14,-0.03 3.97,1.23 4.71,3.23 1.8,4.9 2.96,10.15 3.78,15.3 1.77,11.18 2.15,23.29 1.52,34.58 -0.01,0.14 -0.02,0.26 -0.04,0.4 -0.76,5.6 -1.76,11.2 -3.16,16.68 -0.64,2.5 -3.08,4.08 -5.63,3.64 -0.49,-0.08 -0.96,-0.24 -1.38,-0.45 -0.26,2.63 -0.54,5.26 -0.81,7.9 -0.31,2.89 -0.61,5.78 -0.89,8.67 -0.19,1.94 -0.38,3.87 -0.55,5.8 -0.14,1.63 -0.27,3.25 -0.4,4.88 -0.43,5.81 -0.72,11.65 -0.66,17.47 3.33,-3.33 6.83,-6.48 10.56,-9.37 1.64,-1.27 3.77,-1.4 5.55,-0.34 1.78,1.06 2.69,3 2.35,5.04 -2.18,13.35 -4.9,27.26 -9.07,40.14 -0.74,2.29 -2.95,3.69 -5.34,3.38 -0.34,-0.05 -0.68,-0.13 -0.99,-0.23 0.01,0.14 0.03,0.29 0.03,0.44 0.11,3.38 0.15,6.77 0.11,10.16 -0.02,1.98 -0.07,3.95 -0.14,5.93 -0.05,1.62 -0.13,3.24 -0.22,4.85 -0.53,9.38 -1.58,18.84 -3.39,28.06 -0.16,0.81 -0.33,1.63 -0.51,2.44 -0.55,2.53 -2.94,4.19 -5.5,3.84 -0.48,-0.07 -0.93,-0.2 -1.34,-0.39 -0.23,5.73 -0.26,11.48 -0.3,17.18 -0.01,0.26 -0.01,0.51 -0.01,0.76 -0.02,1.45 -0.02,2.89 -0.04,4.34 -0.01,1.4 -0.02,2.8 -0.04,4.21 -0.2,13.63 -0.68,27.8 -3.54,41.14 -0.53,2.44 -2.75,4.09 -5.24,3.89 -0.44,-0.04 -0.85,-0.13 -1.25,-0.27 0.11,4.9 0.04,9.8 -0.24,14.69 -0.14,2.48 -0.35,4.96 -0.61,7.42 -0.22,2.13 -0.49,4.26 -0.8,6.39 -1.35,9.08 -3.56,17.95 -6.66,26.6 -0.77,2.14 -1.59,4.27 -2.45,6.37 -0.67,1.63 -2.02,2.7 -3.75,2.99 -0.83,0.15 -1.64,0.08 -2.4,-0.17 -0.66,2.17 -1.49,4.24 -2.45,6.25 0.17,0.02 0.34,0.05 0.52,0.09 2.12,0.48 3.62,2.21 3.81,4.38 0.05,0.51 0.09,1.03 0.12,1.54 0.16,2.16 0.28,4.32 0.37,6.48 1.18,28.89 -4.37,59 -25.99,79.91 -1.58,1.53 -3.89,1.84 -5.82,0.77 -0.18,-0.1 -0.35,-0.21 -0.52,-0.33 -0.46,1.7 -0.98,3.39 -1.55,5.08 -0.66,1.93 -1.4,3.85 -2.21,5.73 -0.81,1.91 -1.69,3.78 -2.64,5.63 -0.16,0.31 -0.33,0.63 -0.5,0.95 1.62,-0.93 3.25,-1.83 4.9,-2.69 2.02,-1.05 4.41,-0.63 5.94,1.06 1.53,1.68 1.72,4.1 0.48,6.01 -9.72,14.99 -15.98,30.51 -22.26,47.12 -0.21,0.56 -0.42,1.13 -0.63,1.69 -0.11,0.28 -0.23,0.54 -0.38,0.79 0.56,0.4 1.03,0.91 1.4,1.53 1.15,1.91 0.91,4.25 -0.6,5.88 -0.19,0.21 -0.39,0.42 -0.58,0.62 -2.92,3.15 -5.43,6.56 -7.76,10.17 -1.68,2.6 -3.24,5.27 -4.8,7.94 -0.58,1 -1.17,1.99 -1.76,2.99 -2.5,4.2 -5.09,8.28 -8.07,12.16 -0.14,0.18 -0.29,0.35 -0.42,0.53 -0.88,1.16 -2.06,1.82 -3.5,1.95 -0.93,0.08 -1.8,-0.07 -2.53,-0.41 -1.07,0.83 -2.17,1.63 -3.29,2.39 -0.34,0.23 -0.69,0.46 -1.03,0.68 0.1,0.09 0.2,0.17 0.31,0.27 1.6,1.47 2.05,3.7 1.15,5.68 -0.8,1.76 -1.64,3.5 -2.52,5.22 -1.21,2.4 -2.47,4.77 -3.79,7.1 -2.99,5.28 -6.24,10.42 -9.73,15.39 -5.51,7.85 -13.86,18.51 -22.32,24.73 6.78,-1.36 13.63,-2.36 20.52,-2.93 2.15,-0.17 4.1,0.99 4.94,2.98 0.86,1.98 0.37,4.19 -1.25,5.63l-50.17 44.73c-4.66,3.72 -9.46,7.3 -14.55,10.32 4.5,-0.87 9.04,-1.46 13.61,-1.7 2.2,-0.11 4.13,1.17 4.89,3.24 0.76,2.06 0.11,4.29 -1.64,5.63 -10.75,8.17 -19.77,18.62 -28.56,28.78 -7.66,8.86 -15.85,18.56 -25.3,25.52 -1.79,1.32 -4.15,1.3 -5.92,-0.05 -0.14,-0.11 -0.26,-0.21 -0.39,-0.33 -0.56,1.36 -1.15,2.71 -1.76,4.04 -0.7,1.54 -1.44,3.06 -2.19,4.57 -0.72,1.42 -1.45,2.84 -2.22,4.23 -5.07,9.24 -11.29,17.89 -18.68,25.41 -2.62,2.67 -5.39,5.19 -8.3,7.54 -1.78,1.43 -4.21,1.48 -6.04,0.13 -0.17,-0.13 -0.33,-0.26 -0.48,-0.41 -0.85,1.96 -1.73,3.91 -2.66,5.83 -0.87,1.82 -1.79,3.62 -2.73,5.4 -0.93,1.73 -1.88,3.45 -2.87,5.14 -3.69,6.29 -7.91,12.28 -12.7,17.79 -0.88,1 -1.77,1.99 -2.68,2.97 0.63,0.35 1.19,0.86 1.63,1.5 1.14,1.63 1.2,3.65 0.18,5.36l-23 38.38c21.17,5.36 42.53,11.76 64.19,18.96 24.08,8 24.1,7.05 24.48,35.79l0.19 93.95c10.46,-19.23 16.46,-83.59 16.59,-105.24 15.47,-0.06 26.44,-0.34 44.43,-1.22 60.21,-2.96 132.33,-12.31 201.74,-40.13l-103.33 86.25 101.61 46.25c-119.71,27.13 -242.77,40.67 -359.58,40.94l5.31 9 41.67 -1.04c1.78,2.97 1.73,1.38 8.67,18.59l-40.98 0.09 4.56 7.5 39.42 0.14c1.14,3.03 1.92,3.97 5.46,18.92l-34.76 0.08 5.88 9.15 30.51 -1.62c0.48,2.26 1.77,8.22 2.59,19.06l-24.31 0.05 4.5 7.97 19.8 0.78c0.14,3.17 -2.55,24.61 -3.84,27.38l-0.46 0.19 14.76 26.78 -17.13 9.28 -15.76 -28.21 -0.85 0.37c-8.56,-2.56 -16.42,-6.06 -20.7,-8.53l8.89 -18.46 -6.21 -7.16 -11.01 21c-10.41,-6.47 -10.6,-9.01 -13.05,-11.16l14.51 -27.69 -5.39 -8.88 -16.71 31.86c-4.46,-4.15 -7.82,-7.25 -13.15,-13.96l19.62 -37.2 -4.7 -7.43 -20.01 38.16 -11.39 -17.96 19.9 -36.83c1.89,-3.6 -1.99,-12.89 -5.13,-6.9l-18.97 36.2c-8.42,-17.87 -7.59,-17.16 -8.58,-20.91l19.05 -33.89c1.14,-2.15 -3.66,-12.74 -5.42,-9.45l-16.66 31.15c-2.89,-14.41 -2.15,-26.47 2.4,-33.22 2.53,-4.47 5.3,-8.3 8.42,-11.46 -9.6,1.64 -16.27,-0.46 -21.86,-2.97l8.9 -20.23 -4.4 -7.87c-26.51,-3.44 -76.24,-5.97 -138.26,-2.44 -91.75,5.22 -183.91,23.88 -275.89,32.15 -36.45,3.28 -75.63,5.18 -117.77,3.69l-68.32 90.32c-15.21,32.42 -27.21,59.27 -34.32,78.11l-8.14 -3.54c14.97,-28.57 23.73,-67.11 43.22,-125.25 -4.09,-6.89 -9.36,-14.18 -13.87,-20.73 0.3,-0.19 6.66,-3.41 12.11,-3.7 4.6,-0.25 8.2,0.39 9.34,2.42 2.42,-6.81 4.98,-13.88 7.72,-21.2 -28.64,-2.92 -58.5,-7.74 -89.75,-14.5 -18.23,-3.95 -19.02,-5.51 -18.98,-22.29l-0.23 -96.85c-11.8,16.89 -19.32,69.53 -19.47,91.92 -7.39,0.12 -6.98,0.16 -14.23,0.4 -72.84,2.46 -139.79,11.83 -221.42,35.54l102.41 -77.94 -100.52 -53.32c110.36,-26.26 256.89,-40.16 340.71,-41.76l-3.37 -5.63c-1.03,-1.71 -0.96,-3.73 0.17,-5.36 0.45,-0.64 1.01,-1.15 1.64,-1.5 -0.91,-0.98 -1.8,-1.97 -2.68,-2.97 -4.79,-5.51 -9.01,-11.5 -12.7,-17.79 -1,-1.69 -1.96,-3.41 -2.88,-5.14 -0.94,-1.78 -1.85,-3.58 -2.72,-5.4 -0.92,-1.93 -1.81,-3.87 -2.65,-5.83 -0.16,0.14 -0.32,0.28 -0.49,0.41 -1.83,1.35 -4.26,1.3 -6.04,-0.12 -2.91,-2.35 -5.68,-4.88 -8.3,-7.55 -7.4,-7.52 -13.61,-16.17 -18.68,-25.41 -0.77,-1.39 -1.51,-2.81 -2.23,-4.23 -0.75,-1.51 -1.48,-3.03 -2.17,-4.56 -0.62,-1.34 -1.21,-2.69 -1.78,-4.05 -0.12,0.12 -0.25,0.22 -0.38,0.33 -1.77,1.35 -4.13,1.37 -5.92,0.05 -9.46,-6.96 -17.65,-16.66 -25.3,-25.52 -8.8,-10.16 -17.82,-20.61 -28.56,-28.78 -1.76,-1.34 -2.41,-3.57 -1.65,-5.63 0.76,-2.07 2.7,-3.35 4.9,-3.24 4.57,0.24 9.11,0.83 13.61,1.7 -5.09,-3.02 -9.89,-6.6 -14.56,-10.32l-50.17 -44.73c-1.61,-1.44 -2.1,-3.65 -1.25,-5.63 0.85,-1.99 2.79,-3.15 4.95,-2.98 6.89,0.57 13.74,1.57 20.52,2.93 -8.47,-6.22 -16.82,-16.88 -22.33,-24.74 -3.48,-4.96 -6.73,-10.1 -9.72,-15.38 -1.32,-2.34 -2.59,-4.71 -3.8,-7.1 -0.87,-1.72 -1.71,-3.45 -2.51,-5.2 -0.91,-1.98 -0.46,-4.22 1.14,-5.69 0.1,-0.1 0.21,-0.19 0.32,-0.28 -0.35,-0.22 -0.69,-0.45 -1.03,-0.68 -1.11,-0.75 -2.2,-1.53 -3.27,-2.38 -0.74,0.35 -1.55,0.48 -2.48,0.41 -1.44,-0.11 -2.65,-0.76 -3.54,-1.91 -0.15,-0.2 -0.3,-0.39 -0.45,-0.58 -2.98,-3.88 -5.58,-7.96 -8.08,-12.16 -0.58,-1 -1.17,-1.99 -1.75,-2.98 -1.57,-2.67 -3.13,-5.35 -4.81,-7.95 -2.33,-3.61 -4.83,-7.02 -7.76,-10.17 -0.18,-0.19 -0.37,-0.39 -0.55,-0.58 -1.52,-1.63 -1.78,-3.97 -0.65,-5.88 0.37,-0.64 0.86,-1.16 1.43,-1.56 -0.15,-0.24 -0.27,-0.5 -0.37,-0.78 -0.22,-0.57 -0.44,-1.14 -0.65,-1.71 -6.28,-16.61 -12.53,-32.13 -22.26,-47.12 -1.24,-1.91 -1.04,-4.33 0.49,-6.01 1.53,-1.69 3.92,-2.11 5.94,-1.06 1.65,0.86 3.28,1.76 4.89,2.69 -0.17,-0.32 -0.33,-0.63 -0.5,-0.95 -0.94,-1.85 -1.83,-3.72 -2.64,-5.62 -0.81,-1.89 -1.54,-3.8 -2.2,-5.74 -0.58,-1.68 -1.09,-3.38 -1.55,-5.08 -0.17,0.12 -0.35,0.23 -0.53,0.33 -1.93,1.07 -4.23,0.76 -5.82,-0.77 -21.61,-20.91 -27.16,-51.02 -25.98,-79.91 0.09,-2.16 0.21,-4.31 0.36,-6.47 0.04,-0.48 0.08,-0.97 0.11,-1.45 0.15,-2.19 1.64,-3.96 3.78,-4.47 0.19,-0.05 0.39,-0.08 0.58,-0.11 -0.97,-2 -1.8,-4.07 -2.47,-6.24 -0.75,0.25 -1.56,0.32 -2.4,0.17 -1.73,-0.29 -3.07,-1.36 -3.74,-2.99 -0.87,-2.1 -1.69,-4.23 -2.46,-6.37 -3.09,-8.65 -5.3,-17.52 -6.65,-26.61 -0.32,-2.12 -0.58,-4.25 -0.81,-6.38 -0.26,-2.46 -0.45,-4.93 -0.6,-7.41 -0.29,-4.9 -0.41,-4.49 -0.3,-9.4 -8.23,2.91 -9.91,-46.19 -9.96,-50.06 -0.02,-1.4 -0.03,-2.8 -0.05,-4.2 -0.02,-1.46 -0.03,-2.91 -0.05,-4.37 0,-0.24 0,-0.49 0,-0.74 -0.01,-1.49 -0.18,-17 -1.66,-16.79 -2.56,0.35 -4.95,-1.33 -5.49,-3.86 -0.18,-0.8 -0.34,-1.61 -0.5,-2.42 -1.82,-9.22 -2.88,-18.68 -3.4,-28.06 0.3,-20.93 -1.51,-8.99 -6.54,-24.52 -4.18,-12.88 -6.89,-26.8 -9.07,-40.15 -0.34,-2.04 0.56,-3.98 2.34,-5.04 1.78,-1.06 3.92,-0.93 5.55,0.34 3.73,2.89 7.23,6.05 10.57,9.38 0.05,-5.83 -0.23,-11.67 -0.67,-17.48 -0.12,-1.63 -0.26,-3.26 -0.4,-4.89 -0.17,-1.93 -0.35,-3.86 -0.54,-5.79 -1.97,-20.09 -8.74,-13.54 -11.88,-36.44 -0.02,-0.14 -0.03,-0.26 -0.04,-0.4 -0.62,-11.29 -0.24,-23.4 1.53,-34.58 0.81,-5.15 1.97,-10.4 3.77,-15.3 0.74,-2 2.58,-3.26 4.71,-3.23 2.14,0.03 3.93,1.34 4.61,3.36 0.38,1.15 0.78,2.29 1.17,3.42 1.4,-24.72 7.59,-48.8 17.99,-71.34 0.83,-1.8 2.54,-2.89 4.52,-2.87 1.99,0.02 3.68,1.12 4.48,2.94 3.49,7.89 6.55,15.92 8.99,24.2 3.52,11.92 5.67,24.04 6.75,36.41 0.01,0.15 0.02,0.28 0.02,0.42 0.01,4.41 -0.08,8.82 -0.25,13.23 2.09,-5.74 4.23,-11.47 6.55,-17.12 0.89,-2.16 3.1,-3.38 5.4,-2.99 2.3,0.39 3.98,2.27 4.1,4.6 0.42,7.83 0.81,15.66 1.13,23.49 0.48,11.56 0.85,23.13 1.01,34.81 -0.2,6.64 -0.71,13.39 -1.84,19.83 -0.41,2.33 -2.34,4.01 -4.7,4.09 -0.3,0.01 -0.59,-0.01 -0.88,-0.05 0.41,1.81 0.8,3.61 1.17,5.42 0.65,3.14 1.25,6.3 1.82,9.45 0.76,-1.01 1.55,-2.01 2.35,-3 1.42,-1.74 3.73,-2.31 5.79,-1.42 2.06,0.89 3.24,2.97 2.94,5.19 -1.08,8.06 -1.74,16.18 -2.02,24.3 -0.23,6.91 -0.2,13.83 0.12,20.73 0.72,-1.52 1.45,-3.05 2.17,-4.57 0.98,-2.05 3.15,-3.15 5.39,-2.72 2.23,0.43 3.84,2.25 4,4.52 0.46,6.94 1.18,13.85 1.94,20.76 0.76,6.97 1.53,13.95 1.81,20.95 0.03,0.58 -0.04,1.08 -0.21,1.64 -0.08,0.27 -0.16,0.53 -0.25,0.8 0.13,-0.01 0.26,0 0.38,0 2.15,0.11 3.91,1.51 4.5,3.57 0.72,2.52 1.39,5.06 2,7.6 1.63,6.75 2.89,13.6 3.68,20.5 1.77,15.39 1.38,32.5 -3.5,47.32 -4.49,13.62 -4.98,7.3 -2.65,15.77 4.84,13.26 8.62,27.61 9.43,41.74 0.13,2.2 -1.15,4.15 -3.22,4.92 -0.14,0.05 -0.27,0.09 -0.4,0.13 0.89,1.22 1.77,2.45 2.64,3.69 1.02,1.46 2.01,2.92 2.99,4.4 0.95,1.43 1.88,2.89 2.79,4.36 3.83,6.17 7.26,12.64 9.93,19.4 4.62,11.74 6.57,23.74 4.6,36.25 -0.37,2.33 -2.27,4.04 -4.62,4.16 -0.27,0.02 -0.53,0.01 -0.79,-0.02 0.6,2.11 1.22,4.2 1.85,6.29 0.41,1.34 0.83,2.68 1.25,4.01 0.1,0.32 0.2,0.63 0.3,0.95 0.36,1.11 0.71,2.22 1.08,3.32 1.65,4.98 3.39,9.93 5.23,14.84 0.86,2.33 -0.1,4.89 -2.28,6.07 -0.3,0.16 -0.61,0.29 -0.92,0.39 3.13,3.82 6.5,7.41 9.91,11 0.08,0.1 0.17,0.18 0.25,0.28 15.81,16.73 24.44,29.36 27.54,53.61 0.3,2.34 -1.05,4.51 -3.28,5.29 -0.23,0.08 -0.46,0.14 -0.69,0.18 1.33,2.07 2.71,4.11 4.13,6.14 0.86,1.23 1.73,2.46 2.6,3.69 0.19,0.25 0.36,0.51 0.58,0.8 0.64,0.91 1.26,1.78 1.87,2.65 2.48,3.52 4.92,7.06 7.16,10.74 0.77,1.25 0.94,2.63 0.5,4.03 -0.29,0.94 -0.79,1.71 -1.5,2.3 0.49,1.73 0.94,3.47 1.33,5.22 0.13,-0.08 0.25,-0.16 0.38,-0.22 1.93,-1.04 4.21,-0.71 5.77,0.82 1.58,1.54 3.13,3.1 4.65,4.69 1.68,1.74 3.33,3.53 4.94,5.34 9.9,11.12 18.6,23.58 24.88,37.1 2.6,5.61 4.8,11.43 6.45,17.39 0.82,-1.76 2.57,-2.86 4.56,-2.82 2.17,0.05 3.99,1.42 4.62,3.49 3.06,9.93 7.35,18.61 12.07,27.8 3.2,6.22 6.27,12.34 8.94,18.74 0.79,-4.85 1.79,-9.67 3.05,-14.41 0.56,-2.1 2.33,-3.54 4.5,-3.66 2.17,-0.12 4.09,1.11 4.88,3.13 4.68,12.01 10.96,23.28 17.22,34.52 3.77,6.77 7.55,13.55 10.97,20.52 1.06,2.14 0.45,4.68 -1.46,6.12 -0.37,0.28 -0.77,0.5 -1.18,0.66 0.48,0.26 0.93,0.6 1.32,1.02 3.46,3.75 6.56,7.84 9.31,12.13 2.34,3.63 4.43,7.4 6.32,11.27 0.1,0.21 0.17,0.39 0.24,0.59 0.05,0.15 0.1,0.32 0.09,0.34 1.43,2.73 2.91,6.18 4.23,9.68 1.38,3.65 2.59,7.37 3.65,11.14 0.69,-1.86 1.21,-3.81 1.67,-5.69 0.52,-2.11 2.26,-3.58 4.42,-3.75 2.16,-0.16 4.11,1.02 4.94,3.03 2.51,6.03 4.66,12.2 6.55,18.45 0.49,1.61 0.18,3.21 -0.87,4.52 -0.65,0.81 -1.47,1.37 -2.4,1.65l0.09 0.73c1.62,-0.9 3.5,-0.83 5.07,0.19 0.99,0.65 1.96,1.31 2.93,1.99 1.51,1.06 2.99,2.17 4.44,3.32 6.41,5.05 12.23,10.82 17.57,16.99 5.28,6.1 10.11,12.6 14.62,19.3 1.15,-5.84 2.77,-11.82 5.28,-17.14 0.84,-1.78 2.53,-2.84 4.5,-2.83 1.97,0.01 3.65,1.1 4.46,2.9 3.98,8.74 7.24,17.75 9.86,26.97l0.56 -0.79c0.79,-1.14 1.89,-1.84 3.26,-2.06 0.6,-0.09 1.18,-0.09 1.73,0.02 0.01,-0.01 0.01,-0.02 0.02,-0.03 2.44,9.16 4.25,17.24 5.55,24.44l4.25 4.82 20.45 -36.15c1.38,-2.49 2.77,-4.99 4.18,-7.51 -62.54,-67.98 -121.08,-145.1 -171.25,-232.39 -104.27,-181.37 -172.39,-406.54 -165.23,-684.59 0.09,-3.66 3.13,-6.56 6.79,-6.47 1.23,0.02 2.37,0.39 3.36,0.99 67.13,41.68 137.21,73.32 218.29,84.85l-118.15 -202.35c-2.68,2.23 -6.32,-2.18 -8.73,-7.44l-27.56 -71.94c-20.11,9.07 -40.45,18.64 -61.08,28.75l-108.28 -241.75c387.43,-238.84 935.92,-239.15 1323.35,-0.3l-108.32 241.8c-22.5,-11.03 -39.89,-19.25 -61.79,-29.05 -11.66,14.94 -24.68,25.14 -40.25,47.17l-84.08 231.26c59.73,-14.25 110.66,-39.13 157.56,-78.91 2.8,-2.37 6.99,-2.02 9.37,0.78 1.08,1.29 1.6,2.88 1.56,4.45 7.28,241.28 -50.28,463.52 -140.49,645.13 -60.43,121.67 -135.39,226.2 -214.98,308.54l11.33 20.39c-0.26,-0.03 -0.51,-0.04 -0.76,-0.04 4.61,0.43 9.23,0.88 13.86,1.39 2.9,-1.07 5.75,-2.1 8.55,-3.08zm-566.73 -10.26c-1.08,-0.32 -1.89,-0.32 -2.38,0.04l2.38 -0.04zm-28.72 -146.7c-0.23,-0.12 -0.45,-0.27 -0.67,-0.43 0.04,0.23 0.08,0.45 0.12,0.68 0.1,-0.05 0.2,-0.1 0.3,-0.14 0.09,-0.04 0.17,-0.08 0.25,-0.11zm629.32 131.42c0.08,0.05 0.16,0.1 0.24,0.16l0.03 -0.11c-0.09,-0.01 -0.18,-0.03 -0.27,-0.05zm111.2 -131.17c0.04,-0.23 0.08,-0.45 0.12,-0.67 -0.21,0.16 -0.44,0.3 -0.66,0.42 0.08,0.03 0.17,0.07 0.25,0.11 0.1,0.04 0.2,0.09 0.29,0.14zm-671.85 181.04c-21.21,-2.91 -43.04,-12.38 -54.29,-22.82 -24.24,2.57 -47.91,8.25 -64.48,21.88 34.12,7.6 78.24,12.68 118.86,10.34l-0.09 -9.4zm440.44 -476.51l5.63 6.85c0.12,0.16 0.23,0.33 0.31,0.51 1.68,3.68 2.44,6.78 2.72,9.51 0.27,2.73 0.07,5.01 -0.17,7.16 -0.04,0.75 -0.08,1.34 -0.12,1.92 -0.18,2.49 -0.34,4.8 1.07,5.65 0.17,0.11 0.33,0.23 0.47,0.37 1.7,1.77 3.19,3.15 4.73,3.84 1.36,0.62 2.91,0.72 4.92,0.11 0.27,-0.08 0.53,-0.11 0.8,-0.09 3.9,-0.07 6.56,0.24 8.9,0.91 2.38,0.69 4.29,1.74 6.79,3.14l0.18 0.11c12.67,8.73 23.13,15.98 33.29,23.4 10.2,7.45 20.18,15.15 31.94,24.85l0.06 0.06c6.91,6.13 12.95,12.98 18.07,19.79 6.43,8.56 11.38,17.03 14.75,23.86 4.21,8.48 7.56,18.07 10.08,27.14 3.58,12.79 5.56,24.6 6.13,30.8 1.74,13.1 2.99,25.14 3.84,36.71 0.84,11.55 1.27,22.73 1.36,34.13 0,1.18 -0.91,2.16 -2.07,2.24l-30.74 2.53c-1.23,0.1 -2.32,-0.83 -2.42,-2.06l-0.01 -0.24c-0.67,-15.62 -3.44,-33.67 -6.95,-50.71 -4.31,-20.94 -9.33,-39.17 -13.41,-50.72 -15.45,8.15 -38.45,16.8 -55.06,23.1 -6,2.93 -6.89,6.91 -7.75,10.73 -0.29,1.3 -0.58,2.59 -1.02,3.85 -2.99,13.14 -6.12,25.54 -9.43,37.87 -3.28,12.24 -6.84,24.7 -10.64,37.86 -0.26,0.9 -1.04,1.5 -1.92,1.6l-43.91 4.7c-1.23,0.14 -2.34,-0.76 -2.47,-1.99 -0.1,-0.95 0.4,-1.81 1.2,-2.23 1.1,-0.59 2.17,-1.15 3.16,-1.66 8.96,-4.64 12.12,-6.28 14.14,-28.65 0.56,-8 2.45,-21.78 4.77,-35.68 2.29,-13.79 5,-27.75 7.21,-36.36 3.83,-9.67 9.91,-15.72 16.99,-20.48 14.79,-9.94 31.68,-17.43 47.41,-27.98 -7,-5.03 -15.28,-10.65 -24.2,-9.22 -8.65,16.57 -17.55,28.69 -26.59,37.85 -0.81,0.83 -15.24,12.65 -16.06,13.43 -3.96,2.7 -7.94,5 -11.92,7.05l-0.13 0.06c-2.77,1.18 -4.73,2.81 -6.6,4.35 -3.89,3.2 -7.42,6.12 -15.91,5.56 -0.15,-0.01 -0.28,-0.04 -0.42,-0.07 -2.33,-0.46 -4.84,-0.26 -7.49,-0.06 -2.04,0.16 -4.15,0.31 -6.42,0.22 -2.3,3.59 -5.33,6.83 -9.1,9.4 -5.66,3.86 -12.95,6.19 -21.86,5.89 -14.24,-0.49 -28.13,-6.24 -36.27,-18.41 -2.82,-4.21 -4.02,-8.34 -4.6,-12.62 -0.33,-0.37 -0.5,-0.77 -0.5,-1.19 0,-5.7 33.3,-7.45 56.19,-5.66 4.06,-4.8 6.73,-10.59 8.74,-18.35 2.3,-8.87 3.74,-20.31 5.37,-35.66l0.01 -0.09c0.21,-2.29 0.56,-6.34 0.89,-10.16 1.93,-22.51 3.3,-38.38 10.83,-48.2 -1.33,-1.64 -1.99,-3.51 -2.71,-5.51 -0.73,-2.04 -1.53,-4.25 -3.32,-6.31 -0.42,-0.49 -0.6,-1.11 -0.54,-1.71 0.03,-0.94 0.07,-1.74 0.1,-2.5l0.01 -0.01c0.14,-3.3 0.27,-5.8 -1.07,-7.29l-3.65 1.96c-0.77,0.49 -1.59,0.83 -2.45,1.01 -1.98,0.42 -4.09,0.04 -6.08,-1.02 -1.82,-0.98 -3.55,-2.56 -4.93,-4.63 -1.16,-1.75 -2.08,-3.85 -2.59,-6.24 -0.2,-0.95 0.23,-1.96 1.13,-2.44l8.95 -4.85c-0.31,-1.71 -0.42,-3.58 -0.24,-5.63l0 -0.07c0.36,-4.33 1.45,-8.17 3.09,-11.52 2.92,-5.95 7.58,-10.28 12.99,-13 5.36,-2.69 11.47,-3.79 17.36,-3.31 3.9,0.31 7.72,1.33 11.2,3.03l0.15 0.09c2.04,1.21 3.66,2.4 4.97,3.56l8.82 -4.77c0.88,-0.56 2.05,-0.46 2.8,0.3 0.15,0.16 0.36,0.38 0.62,0.67 2.39,2.71 3.65,6.13 3.82,9.39 0.17,3.32 -0.81,6.5 -2.9,8.69l-0.13 0.15 -0.41 0.38c-0.13,0.11 -0.27,0.21 -0.43,0.29l-1.35 0.72zm-42.9 159.43l0.85 -0.15c3.5,-1.13 6.56,-2.18 9.32,-3.55 2.71,-1.37 5.18,-3.08 7.58,-5.55 0.09,-0.08 0.19,-0.16 0.28,-0.24 9.09,-7.56 15.32,-14.32 20.17,-21.77 4.53,-6.95 7.91,-14.56 11.34,-24.04l-23.35 -7.09c-4.33,17.77 -15.01,39.57 -22.78,55.39 -1.22,2.5 -2.37,4.85 -3.41,7zm-236.35 56.13c3.53,-9.93 8.8,-17.92 15.9,-26.82 0.6,-0.77 1.66,-0.97 2.51,-0.5 0.85,0.49 1.22,1.49 0.88,2.41 -2.16,5.88 -11.04,29.82 -11.84,40.65 4.41,-5.57 10.01,-11.77 16.1,-13.91 0.7,-0.25 1.43,-0.1 1.99,0.4 0.55,0.5 0.77,1.21 0.59,1.93 -0.34,1.39 -1.71,7.61 -1.9,11.94 8.36,-17.26 24.62,-34.23 43.41,-38.3 0.86,-0.19 1.72,0.2 2.15,0.98 0.43,0.78 0.29,1.71 -0.33,2.34 -8.26,8.37 -23.03,26.66 -27.25,39.48l10.22 -1.36c0.88,-0.12 1.71,0.34 2.07,1.16 0.36,0.81 0.15,1.73 -0.53,2.31l-10.62 8.95 16.14 6.26c0.88,0.34 1.39,1.22 1.24,2.15 -0.15,0.93 -0.9,1.61 -1.85,1.66l-19.19 1.03c-5.11,5.03 -9.61,6.37 -16.93,4.9 -0.12,-0.03 -0.22,-0.06 -0.33,-0.1 -2.15,-0.85 -3.15,-2.43 -3.34,-4.36 -4.78,1.34 -11.57,-5.67 -13.71,-5.41 -2.86,4.04 -9.15,4 -10.4,-0.84l-0.64 -0.05c-0.25,2.87 -0.97,6.93 -2.5,8.82 -0.96,3.44 -7.74,5.89 -9.88,1.43 0.36,4.65 0.67,9.3 0.91,13.96 0.04,0.75 -0.31,1.4 -0.94,1.79l-5.09 3.09c-0.62,0.38 -1.34,0.4 -1.97,0.05 -0.64,-0.35 -1.01,-0.96 -1.03,-1.68 -0.48,-17.67 -2.54,-36.82 -10.2,-52.98 -0.22,-0.46 -0.25,-0.94 -0.1,-1.44 3.79,-11.94 4.46,-23.85 4.48,-36.12 -1.02,1.13 -2.09,2.23 -3.22,3.25l-2 42.13c3.15,17.87 5.63,35.87 7.22,53.95 0.06,0.75 -0.26,1.42 -0.89,1.83l-5.19 3.41c-0.6,0.39 -1.32,0.43 -1.96,0.11 -0.65,-0.32 -1.05,-0.92 -1.09,-1.64 -1.15,-18.4 -4,-38.29 -12.59,-54.84 -0.23,-0.46 -0.28,-0.94 -0.14,-1.44 2.99,-10.76 3.64,-21.48 3.47,-32.46 -8.58,9.72 -20.18,17.04 -22.01,30.95 0.55,5.11 0.79,26.28 -9.05,20.65 -0.15,-0.08 -0.27,-0.17 -0.39,-0.29 -10.55,-10.13 -18.41,-46.59 -20.2,-60.44 -5.19,-40.39 1.57,-81.37 19.46,-117.98 9.83,-20.1 17.12,-38.11 43.87,-36.73 0.86,0.01 1.51,-0.78 1.31,-1.36 -22.53,3 -30.73,-17.71 -24.44,-36.92 4.4,-13.45 12.9,-24.62 26.78,-28.95 7.53,-2.35 18.3,-2.65 25.42,0.91 10.97,3.99 9.42,14.09 21.49,19.34 18.01,5.63 60.95,26.51 67.4,44.91 0.31,0.87 -0.01,1.82 -0.79,2.32 -0.79,0.5 -1.78,0.4 -2.44,-0.24 -15.16,-14.63 -36.55,-23.5 -57.15,-26.83 -9.73,-1.57 -32.87,-3.27 -41.09,4.13 -0.03,0.12 -0.05,0.24 -0.07,0.36 1.25,-0.1 3.68,-1.59 4.43,-2.14 0.22,-0.16 0.44,-0.27 0.71,-0.33 7.63,-1.84 14.65,3 17.25,10.07 7.27,13.02 6.71,50.57 4.8,64.63 -1.74,25.66 -6.91,55.62 -21.4,77.38 -1.36,2.64 -2.59,5.44 -3.63,8.32l-4.1 49.25c1.37,9.78 2.53,19.58 3.44,29.41 -0.86,-37.34 13.17,-72.7 32.72,-104.14 0.55,-0.89 1.71,-1.19 2.63,-0.69 0.92,0.51 1.28,1.65 0.82,2.59 -7.88,16.29 -18.07,42.95 -17.4,63.7zm-100.45 23.2c3.71,8.97 9.9,16.67 17.59,22.54l0.73 -2.88c0.18,-0.72 0.7,-1.24 1.41,-1.43 0.72,-0.18 1.43,0.02 1.94,0.56l9.98 10.57c-0.22,-2.54 -0.42,-5.08 -0.61,-7.62 -0.06,-0.87 0.42,-1.65 1.22,-1.98 0.81,-0.33 1.69,-0.11 2.26,0.55 9.59,11.27 16.79,23.43 22.76,36.93 0.3,0.68 0.21,1.42 -0.25,2.01 -0.46,0.59 -1.16,0.86 -1.89,0.73l-6.6 -1.12 -1.09 5.99c-0.12,0.64 -0.51,1.15 -1.11,1.43 -0.59,0.28 -1.23,0.25 -1.8,-0.07 -13.77,-7.73 -25.71,-18.61 -36.02,-30.54 -1.71,6.22 -5.53,12 -9.21,17.12 -0.33,0.46 -0.79,0.73 -1.36,0.81 -0.57,0.06 -1.08,-0.09 -1.52,-0.46 -17.12,-14.53 -22.09,-37.2 -42.63,-51.77 -0.78,-0.55 -1.05,-1.54 -0.67,-2.41 0.39,-0.87 1.31,-1.33 2.24,-1.12 5.79,1.29 11.59,3.38 16.98,6.15 -6.35,-8.95 -13.12,-17.37 -20.95,-25.29 -0.62,-0.63 -0.75,-1.55 -0.34,-2.33 0.42,-0.77 1.26,-1.17 2.13,-1 6.24,1.23 12.49,3.16 18.38,5.7 -8.31,-16.9 -21.27,-32.71 -33.72,-46.4 -0.64,-0.72 -0.69,-1.78 -0.1,-2.54 0.59,-0.77 1.62,-0.99 2.48,-0.55 13.02,6.79 25.55,18.95 36.19,30.15 -7.98,-30.34 -15.14,-50.83 -35.85,-78.33 -0.6,-0.8 -0.52,-1.9 0.19,-2.6 0.71,-0.69 1.81,-0.76 2.6,-0.15 31.16,24.31 52.4,71.21 63.4,108.2 0.17,0.58 0.09,1.17 -0.26,1.67l-6.5 9.48zm-227.1 -526.82l2.82 34.35c-2.04,10.19 -12.54,14.73 -18.82,20.06 -11.87,10.82 -23.61,19.83 -27.2,29.99 -20.05,-95.14 -30.66,-191.24 -28.61,-303.29 70.92,43.06 146.47,75.83 233.63,84.02 90.2,8.46 190.74,-12.83 305.55,-86.7 69.97,61.22 168.59,93.01 268.85,93.01 95.01,0 187.46,-25.3 262.66,-84.37 1.61,79.15 -2.95,152.52 -14.28,226.31 -4.11,-0.27 -6.91,-0.26 -9.55,-0.26 -12.06,0 -22.37,2.05 -31.92,2.05 -3.77,0 -7.45,-0.32 -11.04,-1.2 -19.6,-2.84 -25.24,-37.02 -28.85,-63.21l-358.16 0 0.94 71.36c-0.34,0 -0.69,-0.01 -1.02,-0.01 -18.61,0 -19.07,12.56 -28.31,13.5 -18.17,3.14 -18.56,17.34 -33.06,17.34 -4.26,0 -9.76,-1.22 -17.28,-4.33 -15.35,-15.69 -39.36,-33.25 -67.42,-49.39 -12.86,-3.76 -19.92,-22.59 -24.94,-42.67l4.4 -19.91c-7.43,2.39 -18.59,2.51 -24.81,2.51 -0.74,0 -1.42,0 -2.01,0 -1.2,0.2 -2.43,0.28 -3.66,0.28 -18.36,0 -39.82,-20.61 -63.77,-24.43 -0.75,0.03 -1.52,0.04 -2.27,0.04 -12.71,0 -25.06,-3.09 -36.81,-3.09 -1.73,0 -3.44,0.07 -5.14,0.23 -13.48,1.56 -17.56,10.51 -23.06,16.78 -5.64,6.9 -8.94,12.23 -12.85,12.39 -5.95,0.14 -11.77,1.1 -18.2,1.87 -38.41,2.67 -95.34,10.03 -133.9,18.04l0.14 38.73 -52.05 0zm-29.46 139.88l988.64 0c-5.44,21.4 -11.56,42.49 -17.92,63.25l-952.78 0c-6.46,-20.65 -12.45,-41.73 -17.94,-63.25zm986.5 -583.18c-22.88,23.25 -42.28,48.72 -78.68,89.56l-19.08 2.85 0.23 1.85 6.32 7.91 2.33 -1c-34.56,39.96 -77.37,92.53 -129.92,177.9l-16.17 -33.91 -9.12 7.99 8.64 15.98 -19 -15.96 -12.31 16.16 27.94 20.33 -25.31 -11.92 -9.56 9.78c6.39,3.15 12.76,6.31 19.14,9.48 -86.91,-6.39 -169.6,-40.3 -229.51,-94.36 -2.17,-2.14 -5.61,-2.57 -8.28,-0.84 -113.75,74.25 -211.07,93.64 -297.41,89.71l-123.83 -213.08 0.28 -0.13c2.51,-1.25 0.17,-7.27 -2.08,-11.28l-49.88 -61.88c346.72,-155.46 619.73,-157.99 965.26,-5.14zm-718.05 1214.13c10.48,-21.98 20.96,-44.19 31.24,-66.33 14.43,15.05 24.54,25.3 39.29,39.42l-14.07 20.55c-22.12,2.89 -36.29,4.53 -56.46,6.36zm69.87 -8.11l8.53 -11.27c3.13,2.98 6.27,5.94 9.4,8.88l0.01 0c-6.05,0.81 -12.02,1.61 -17.94,2.39zm36.15 -4.85c-93.11,-85.8 -180.62,-189.99 -252.19,-314.5 -39.91,-69.43 -73.37,-144.69 -100.33,-227.66l465.49 0 -0.47 528.56c2.07,-0.25 -78.85,9.29 -112.5,13.6zm129.24 -15.14l-0.86 -527.02 463.94 0c-21.44,67.6 -46.18,131.63 -75.89,191.46 -66.5,133.87 -149.3,246.68 -237.66,331.56 0.19,0.01 -99.55,-0.25 -149.53,4zm-293.48 169.06l-33.21 48.28c10.88,-22.89 12.55,-25.99 23.66,-48.88 6.4,0.42 3.27,0.33 9.55,0.6zm594.55 -1058.32c19.2,-1.31 35.14,-3.13 53.79,-7.79l75.8 -198.12c-50.34,71.97 -86.78,119.46 -129.59,205.91zm-702.18 1009.12l6.06 -49.46 39.53 4.86 -1.47 11.84 -23.64 -2.9 -0.79 6.59 19.97 2.45 -1.39 11.34 -19.98 -2.44 -0.94 7.64 24.6 3.02 -1.47 12.01 -40.48 -4.95zm43.81 -10.42l15.54 0.82c0.33,1.82 1.04,3.16 2.12,4 1.11,0.86 2.74,1.34 4.97,1.46 1.87,0.1 3.35,-0.15 4.46,-0.74 1.1,-0.58 1.67,-1.44 1.73,-2.57 0.11,-1.79 -2.06,-3.38 -6.47,-4.74 -0.89,-0.27 -1.58,-0.48 -2.04,-0.64 -3.62,-1.13 -6.49,-2.13 -8.62,-3.03 -2.15,-0.88 -3.69,-1.68 -4.65,-2.43 -1.84,-1.47 -3.18,-3.19 -4.04,-5.16 -0.86,-1.96 -1.22,-4.17 -1.1,-6.62 0.26,-4.94 2.32,-8.72 6.18,-11.33 3.88,-2.62 9.05,-3.75 15.56,-3.42 6.4,0.33 11.37,1.94 14.9,4.83 3.52,2.89 5.4,6.84 5.61,11.89l-15.17 -0.79c-0.16,-1.47 -0.76,-2.6 -1.76,-3.37 -1.01,-0.79 -2.49,-1.22 -4.43,-1.33 -1.7,-0.09 -2.99,0.13 -3.86,0.64 -0.86,0.53 -1.32,1.35 -1.38,2.52 -0.1,1.64 2.02,3.13 6.33,4.45 0.39,0.12 0.66,0.23 0.87,0.28 0.63,0.18 1.57,0.47 2.83,0.87 5.71,1.77 9.43,3.29 11.13,4.58 2.15,1.59 3.67,3.32 4.57,5.25 0.93,1.93 1.32,4.16 1.18,6.7 -0.29,5.5 -2.42,9.61 -6.41,12.36 -3.99,2.76 -9.57,3.93 -16.73,3.56 -6.61,-0.33 -11.77,-2.1 -15.46,-5.25 -3.72,-3.14 -5.67,-7.41 -5.86,-12.79zm62.57 18.43l0.64 -36.68 -14.34 -0.26 0.23 -13.13 44.38 0.78 -0.23 13.13 -14.04 -0.25 -0.65 36.69 -15.99 -0.28zm48.29 -17.32l10.04 -0.35 -5.56 -17.08 -4.48 17.43zm-19.95 17.74l15.77 -50.39 16.2 -0.57 19.24 49.18 -15.86 0.55 -2.09 -6.51 -15.85 0.55 -1.7 6.66 -15.71 0.53zm68.36 -15.07l4.28 -0.37c3.96,-0.36 6.65,-1.47 8.02,-3.39 1.39,-1.91 1.88,-5.17 1.48,-9.74 -0.39,-4.46 -1.45,-7.55 -3.19,-9.29 -1.74,-1.73 -4.49,-2.42 -8.26,-2.09l-4.48 0.39 2.15 24.49zm-14.84 13.96l-4.36 -49.62 19.28 -1.69c4.91,-0.43 8.56,-0.53 10.99,-0.3 2.43,0.23 4.57,0.77 6.45,1.62 3.62,1.72 6.45,4.35 8.49,7.85 2.05,3.52 3.31,7.95 3.77,13.29 0.5,5.62 -0.15,10.43 -1.97,14.46 -1.81,4.01 -4.72,7.13 -8.74,9.36 -1.55,0.89 -3.53,1.6 -5.95,2.12 -2.41,0.52 -6.28,1.03 -11.66,1.49l-16.3 1.42zm62.89 -30.01c0.58,4.69 1.77,8.02 3.62,10.02 1.84,2 4.43,2.8 7.76,2.4 3.3,-0.41 5.6,-1.8 6.88,-4.19 1.28,-2.37 1.63,-5.9 1.05,-10.6 -0.59,-4.73 -1.77,-8.08 -3.58,-10.07 -1.83,-1.99 -4.39,-2.79 -7.7,-2.38 -3.33,0.41 -5.65,1.82 -6.96,4.19 -1.29,2.39 -1.65,5.93 -1.07,10.63zm-16.01 1.96c-0.99,-8.05 0.53,-14.69 4.55,-19.91 4.03,-5.21 10.02,-8.31 17.96,-9.28 7.92,-0.97 14.47,0.58 19.62,4.67 5.17,4.11 8.24,10.17 9.24,18.23 0.98,8.05 -0.53,14.68 -4.56,19.89 -4,5.23 -9.98,8.34 -17.89,9.32 -7.95,0.97 -14.52,-0.6 -19.67,-4.7 -5.18,-4.1 -8.27,-10.17 -9.25,-18.22zm92.11 1.31l4.26 -0.6c3.94,-0.55 6.56,-1.81 7.84,-3.8 1.28,-1.98 1.6,-5.24 0.96,-9.79 -0.63,-4.44 -1.85,-7.48 -3.67,-9.12 -1.83,-1.64 -4.62,-2.18 -8.37,-1.65l-4.44 0.63 3.42 24.33zm-14.08 14.72l-6.94 -49.33 19.16 -2.68c4.88,-0.7 8.51,-0.99 10.96,-0.89 2.43,0.1 4.61,0.53 6.53,1.29 3.69,1.53 6.65,3.99 8.88,7.39 2.23,3.4 3.73,7.76 4.46,13.07 0.78,5.58 0.38,10.43 -1.22,14.55 -1.59,4.11 -4.33,7.36 -8.23,9.79 -1.51,0.97 -3.45,1.77 -5.82,2.44 -2.38,0.64 -6.24,1.34 -11.58,2.1l-16.2 2.27zm51.35 -6.24l-6.94 -49.33 39.42 -5.53 1.66 11.82 -23.57 3.31 0.91 6.58 19.94 -2.8 1.59 11.31 -19.92 2.8 1.07 7.63 24.54 -3.45 1.69 12 -40.39 5.66zm76.3 -37.35l7.24 -0.76c2.54,-0.28 4.24,-0.8 5.13,-1.58 0.9,-0.78 1.25,-2.03 1.07,-3.73 -0.17,-1.75 -0.79,-2.92 -1.83,-3.51 -1.04,-0.58 -2.95,-0.71 -5.76,-0.41l-6.83 0.7 0.98 9.29zm-12.73 29.9l-5.21 -49.54 23.71 -2.49c7.43,-0.78 12.84,-0.22 16.25,1.65 3.41,1.89 5.37,5.36 5.91,10.43 0.32,3.03 -0.08,5.62 -1.16,7.73 -1.08,2.14 -2.93,3.94 -5.51,5.39 2.81,0.3 4.95,1.23 6.38,2.82 1.44,1.59 2.37,4.02 2.8,7.33l1 6.87c0,0.06 0.02,0.11 0.05,0.16 0.28,1.97 0.86,2.95 1.74,2.95l0.19 1.86 -16.04 1.67c-0.41,-1.16 -0.74,-2.17 -0.98,-3.03 -0.24,-0.88 -0.39,-1.56 -0.44,-2.05l-0.51 -4.96c-0.28,-2.54 -0.97,-4.29 -2.09,-5.23 -1.12,-0.93 -2.92,-1.27 -5.41,-1.01l-6.76 0.72 1.79 17.09 -15.71 1.64zm62.14 -30.47c0.34,4.71 1.36,8.1 3.09,10.2 1.73,2.1 4.28,3.03 7.63,2.79 3.33,-0.24 5.69,-1.49 7.09,-3.81 1.41,-2.3 1.93,-5.8 1.6,-10.53 -0.33,-4.74 -1.34,-8.17 -3.05,-10.25 -1.71,-2.08 -4.23,-3.01 -7.55,-2.79 -3.36,0.24 -5.74,1.53 -7.17,3.84 -1.43,2.31 -1.97,5.83 -1.64,10.55zm-16.09 1.13c-0.57,-8.09 1.31,-14.64 5.6,-19.64 4.29,-5.01 10.44,-7.79 18.42,-8.34 7.95,-0.57 14.4,1.34 19.35,5.69 4.94,4.38 7.69,10.58 8.26,18.68 0.57,8.08 -1.3,14.62 -5.59,19.64 -4.28,5.01 -10.4,7.8 -18.36,8.36 -7.99,0.55 -14.46,-1.36 -19.4,-5.72 -4.96,-4.37 -7.71,-10.58 -8.28,-18.67zm74.51 -7.25l7.27 -0.13c2.56,-0.04 4.3,-0.41 5.25,-1.13 0.97,-0.7 1.42,-1.91 1.39,-3.61 -0.02,-1.76 -0.53,-2.98 -1.51,-3.66 -0.98,-0.67 -2.89,-0.97 -5.71,-0.93l-6.86 0.13 0.17 9.33zm-15.31 28.69l-0.87 -49.82 23.85 -0.4c7.47,-0.14 12.81,0.88 16.05,3.06 3.22,2.18 4.89,5.82 4.97,10.91 0.06,3.05 -0.56,5.56 -1.83,7.61 -1.27,2.03 -3.27,3.65 -5.97,4.88 2.78,0.53 4.83,1.65 6.12,3.36 1.29,1.7 2,4.23 2.16,7.54l0.38 6.95c0.01,0.04 0.02,0.1 0.04,0.15 0.11,1.99 0.6,3.03 1.47,3.1l0.04 1.85 -16.13 0.3c-0.3,-1.2 -0.54,-2.25 -0.71,-3.12 -0.17,-0.89 -0.25,-1.6 -0.27,-2.08l-0.08 -4.97c-0.04,-2.57 -0.58,-4.37 -1.62,-5.41 -1.03,-1.03 -2.79,-1.51 -5.3,-1.48l-6.79 0.13 0.3 17.17 -15.81 0.27zm69.89 -16.56l10.03 0.53 -4.06 -17.49 -5.97 16.96zm-21.42 15.95l20.11 -48.84 16.17 0.84 14.89 50.68 -15.84 -0.83 -1.52 -6.68 -15.83 -0.83 -2.27 6.47 -15.71 -0.81zm53.79 2.6l5.2 -49.55 16.22 1.71 -5.21 49.55 -16.21 -1.71zm37.96 4.2l-14.26 -2.52 8.65 -49.07 19.19 3.39 2.47 25.69c0.05,0.35 0.1,1.12 0.14,2.38 0.05,1.23 0.15,2.92 0.27,5.1 0.6,-1.59 1.14,-2.97 1.62,-4.16 0.48,-1.18 0.89,-2.06 1.18,-2.66l11.3 -23.36 19.16 3.37 -8.66 49.07 -14.26 -2.5 4.4 -24.13c0.25,-1.47 0.51,-2.9 0.76,-4.28 0.26,-1.38 0.54,-2.82 0.83,-4.31 -0.98,2.44 -2.12,5.1 -3.4,7.96l-0.18 0.41 -10.3 22.95 -11 -1.93 -1.98 -24.56c-0.1,-1.12 -0.18,-2.39 -0.21,-3.83 -0.04,-1.43 -0.11,-3.36 -0.16,-5.79 -0.3,2.12 -0.56,3.94 -0.79,5.45 -0.24,1.52 -0.44,2.72 -0.6,3.64l-4.17 23.69zm68 -4.41l9.65 2.77 -0.01 -17.95 -9.64 15.18zm-24.47 10.71l30.59 -43.06 15.57 4.47 3.12 52.72 -15.26 -4.37 0.03 -6.86 -15.25 -4.37 -3.66 5.8 -15.14 -4.33zm-19.53 68.15c36.29,1.06 47.19,0.37 89.31,-0.78 -31.21,-15.06 -64.71,-26.02 -107.13,-31.28l17.82 32.06zm-885.8 -1533.11l81.37 -35.52c17.7,-7.71 32.79,-9.25 45.25,-4.6 12.48,4.65 22.13,15.04 28.8,30.72 6.86,16.13 7.43,31.01 1.83,44.34 -5.83,13.44 -18.52,24.29 -38.43,32.97l-26.75 11.67 25.25 59.36 -49.1 21.41 -68.22 -160.35zm78.25 47.11l12.16 -5.3c9.51,-4.16 15.39,-8.84 17.81,-13.62 2.33,-4.99 2.51,-10.12 0.32,-15.27 -2.2,-5.15 -5.56,-8.73 -10.62,-10.78 -4.74,-1.9 -11.7,-1 -20.98,3.05l-13.94 6.09 15.25 35.83zm1015.28 69.39l-55.19 -24.94 -19.5 22.7 -49.7 -22.45 129.62 -132.64 53.22 24.04 -11.3 186.09 -51.03 -23.04 3.88 -29.76zm4.87 -39.2l8.06 -64.99 -42.58 49.39 34.52 15.6zm-893.22 -70.24c-7.44,-27.25 -5.62,-50.79 5.29,-70.3 10.86,-19.73 29.92,-33.16 56.85,-40.7 27.62,-7.73 51.02,-6.19 69.98,4.7 19.2,10.82 32.33,29.66 39.77,56.94 5.33,19.5 6.5,36.63 3.41,50.91 -3.04,14.51 -9.92,26.81 -20.3,37.31 -10.61,10.56 -24.96,18.37 -43.3,23.5 -18.8,5.27 -35.19,6.56 -49.16,3.89 -13.9,-2.43 -26.51,-9.28 -37.77,-20.29 -10.96,-10.86 -19.39,-26.2 -24.77,-45.96zm51.35 -14.11c4.62,16.93 11.21,28.24 19.3,34.07 8.25,5.53 17.87,6.89 28.54,3.9 11.14,-3.12 18.71,-9.28 22.82,-18.03 4.04,-8.97 3.47,-22.98 -1.66,-41.78 -4.3,-15.75 -10.7,-26.37 -18.95,-31.9 -8.32,-5.76 -17.87,-6.89 -28.78,-3.83 -10.22,2.86 -17.54,8.96 -21.83,18 -4.2,9.28 -4.13,22.41 0.56,39.57zm684.97 -88.96l51.06 16 -50.96 166.81 -51.07 -16.01 50.97 -166.8zm-521.79 -38.98l53.03 -4.63 11.16 131.2 83.01 -7.25 3.64 42.76 -136.03 11.88 -14.81 -173.96zm406.14 116.07l43.6 22.09c-5.36,12.67 -11.97,22.63 -20.38,30.3 -8.15,7.47 -17.37,12.77 -28.08,15.32 -10.51,2.84 -23.46,2.77 -38.64,0.08 -18.51,-3.29 -33.23,-8.62 -43.89,-16.21 -10.91,-7.63 -19.24,-18.76 -25.42,-33.97 -6.16,-15.21 -7.4,-33.5 -3.71,-54.89 4.91,-28.34 16.29,-48.85 33.88,-61.56 17.57,-12.49 40.01,-16.42 67.29,-11.58 21.34,3.78 37.43,11.09 48.23,22.17 10.83,10.83 17.52,25.88 20.29,45.2l-48.04 2.11c-0.74,-5.57 -1.73,-9.72 -2.99,-12.41 -2.41,-4.4 -5.43,-8.15 -9.33,-11.06 -3.85,-3.16 -8.42,-4.96 -13.64,-5.89 -11.86,-2.1 -21.95,1.05 -30.01,9.53 -5.99,6.36 -10.32,17.23 -12.97,32.6 -3.29,18.98 -2.69,32.45 1.75,40.68 4.49,7.97 11.93,13 22.37,14.85 9.97,1.77 18.05,0.24 24.27,-4.6 6.18,-4.6 11.19,-12.38 15.42,-22.76zm-215.09 -128.79l53.41 2.34 -7.46 174.44 -53.41 -2.34 7.46 -174.44zm27.72 -44.93l41.14 1.81 -39.53 33.9 -22.86 -1 21.25 -34.71zm473.9 1849.44l108.3 241.75c-387.44,238.84 -935.95,239.14 -1323.39,0.29l108.31 -241.79c403.16,197.64 703.63,197.4 1106.78,-0.25zm-626.64 198.38l56.02 -2.78 77.71 104.66 -5.21 -108.23 56.54 -2.8 9.45 196.2 -56.54 2.79 -77.43 -104.11 5.18 107.68 -56.27 2.78 -9.45 -196.19zm359.22 119.36l-66.14 15.93 -2.1 33.78 -59.57 14.35 26.28 -208.25 63.78 -15.36 115.52 174.09 -61.15 14.73 -16.62 -29.27zm-22.11 -38.4l-36.67 -63.63 -4.7 73.61 41.37 -9.98zm-512.59 -108.24l158.71 23.21 -5.93 41.55 -99.2 -14.51 -4.41 30.95 91.96 13.45 -5.65 39.64 -91.96 -13.44 -5.46 38.28 102.15 14.93 -6.27 43.99 -161.66 -23.63 27.72 -194.42zm578.47 -31.55l55.73 -22.15 53.46 137.92 87.24 -34.68 17.42 44.94 -142.97 56.84 -70.88 -182.87zm-751.13 -24.98l94.33 32.63c20.51,7.1 34.22,17.35 41.15,30.77 6.93,13.4 7.24,29.46 1.11,47.62 -6.3,18.71 -16.94,31.55 -31.54,38.38 -14.87,6.74 -33.55,6.07 -56.62,-1.9l-31.01 -10.73 -23.2 68.79 -56.91 -19.68 62.69 -185.88zm30.12 99.13l14.09 4.87c11.02,3.82 19.42,4.4 25.01,2.27 5.66,-2.38 9.63,-6.52 11.64,-12.49 2.02,-5.97 1.88,-11.53 -0.82,-17.1 -2.53,-5.22 -9,-9.78 -19.77,-13.5l-16.15 -5.58 -14 41.53zm1057.3 -1.16l-101.76 -227.17 5.31 -48.18 96.72 215.9 -0.27 59.45zm3.79 -90.51l148.85 -76.96 -133.77 -31.16 112.24 -206.09 -218.19 111.36 90.87 202.85zm-1337.56 94.58l105.35 -235.17 -7.03 -44.36 -96.13 214.61 -2.19 64.92zm-2.26 -93.93l-148.27 -77.61 133.77 -31.16 -112.23 -206.09 217.88 111.38 -91.15 203.48zm1372.8 -1785.34l-103.74 231.58 6.6 45.3 96.74 -215.96 0.4 -60.92zm3.65 90.81l148.75 77.96 -133.77 31.16 112.23 206.09 -218.43 -111.56 91.22 -203.65zm-1334.37 -85.31l102.31 228.4 -6.06 46.5 -93.88 -209.56 -2.37 -65.34zm-5.81 85.69l-148 77.58 133.75 31.16 -112.22 206.09 217.55 -111.21 -91.08 -203.62zm1767.46 -135.99c-92.32,-109.61 -184.64,-219.21 -276.95,-328.82 -286.29,155.41 -566.83,130.93 -838.53,-45.64 -271.7,176.57 -552.23,201.05 -838.53,45.64 -92.31,109.61 -184.63,219.21 -276.94,328.82 128.19,103.32 216.14,236.61 211.81,406.97 -6.92,137.51 -34.02,275.11 -95.07,399.09l-0.24 0.5 -0.28 0.48c-104.39,182.35 -157.68,378.61 -155.72,588.68 11.08,208.96 92.85,383.25 252.23,519.55 127.98,109.44 269.8,199.84 423.51,268.57 79.55,35.57 162.37,67.96 246.73,91.24 87.21,27.06 174.87,70.25 232.5,142.59 57.63,-72.34 145.3,-115.53 232.51,-142.59 84.36,-23.28 167.17,-55.67 246.72,-91.24 153.71,-68.73 295.53,-159.13 423.51,-268.57 159.39,-136.3 241.15,-310.59 252.23,-519.55 1.96,-210.07 -51.32,-406.33 -155.71,-588.68l-0.28 -0.48 -0.24 -0.5c-61.05,-123.98 -88.15,-261.58 -95.08,-399.09 -4.33,-170.36 83.63,-303.65 211.82,-406.97z"/>
 </g>
</svg>
